/* XPM */
static char * dma_xpm[] = {
"72 32 2 1",
" 	c #FFFFFF",
"*	c #000000",
"************************************************************************",
"*                                                                      *",
"*                                                                      *",
"*                                                                      *",
"*                                                                      *",
"*                                                                      *",
"*                                                                      *",
"*                                                                      *",
"*     ************        ******         *******         ****          *",
"*       ****    ****        ****         *****           ****          *",
"*       ****      ****      *****       ******           ****          *",
"*       ****      ****      *****       * ****          ******         *",
"*       ****       ****     * ***       * ****          * ****         *",
"*       ****       ****     * ****     ** ****          * ****         *",
"*       ****       *****    * ****     *  ****         **  ****        *",
"*       ****       *****    *  ***     *  ****         *   ****        *",
"*       ****       *****    *  ****   **  ****         *   ****        *",
"*       ****       *****    *  ****   *   ****        **    ****       *",
"*       ****       *****    *   ***   *   ****        *     ****       *",
"*       ****       *****    *   **** **   ****        **********       *",
"*       ****       ****     *   **** *    ****       **      ****      *",
"*       ****       ****     *    *** *    ****       *       ****      *",
"*       ****      ****      *    *****    ****       *       ****      *",
"*       ****      ****      *    ****     ****      **        ****     *",
"*       ****    ****       ***    ***     ****     ***        ****     *",
"*     ************        *****   ***   ******** *******    ********   *",
"*                                                                      *",
"*                                                                      *",
"*                                                                      *",
"*                                                                      *",
"*                                                                      *",
"************************************************************************"};
